<svg xmlns="http://www.w3.org/2000/svg" viewBox="0 0 245.12 255.6">
  <defs>
    <style>
      .cls-1 {
        fill: #fff;
        stroke-width: 0px;
      }
    </style>
  </defs>
  <path
    class="cls-1"
    d="m191.31,134.52h-20.18c-3.71,0-6.73-3.01-6.73-6.73s3.01-6.73,6.73-6.73h20.18V33.63c0-11.14-9.03-20.18-20.18-20.18h-13.45c-3.71,0-6.73-3.01-6.73-6.73s3.01-6.73,6.73-6.73h13.45c11,0,20.77,5.28,26.9,13.45,6.14-8.17,15.9-13.45,26.9-13.45h13.45c3.71,0,6.73,3.01,6.73,6.73s-3.01,6.73-6.73,6.73h-13.45c-11.14,0-20.18,9.03-20.18,20.18v87.44h20.18c3.71,0,6.73,3.01,6.73,6.73s-3.01,6.73-6.73,6.73h-20.18v87.44c0,11.14,9.03,20.18,20.18,20.18h13.45c3.71,0,6.73,3.01,6.73,6.73s-3.01,6.73-6.73,6.73h-13.45c-11,0-20.77-5.28-26.9-13.45-6.14,8.17-15.9,13.45-26.9,13.45h-13.45c-3.71,0-6.73-3.01-6.73-6.73s3.01-6.73,6.73-6.73h13.45c11.14,0,20.18-9.03,20.18-20.18v-87.44Z"
  />
  <path
    class="cls-1"
    d="m132.29,66.22l12.38-2.63-14.07,47.47c-5.63,18.89-10.95,40.66-15.95,65.3-2.75,13.39-4.13,22.02-4.13,25.89s1.56,5.82,4.69,5.82c2,0,5.19-1.31,9.57-3.94,7.76-4.63,15.2-10.38,22.33-17.26l6,7.32c-14.26,13.01-23.39,20.89-27.39,23.64-8.01,5.5-15.64,9.57-22.89,12.2-4.76,1.75-9.38,2.63-13.89,2.63-3.25,0-5.69-.75-7.32-2.25-1.63-1.5-2.44-3.69-2.44-6.57,0-1.88.5-4.44,1.5-7.69l7.51-25.52c-10.76,12.89-23.58,23.96-38.47,33.21-9.13,5.75-17.51,8.63-25.14,8.63s-12.82-2.57-16.7-7.69c-5.25-6.88-7.88-15.89-7.88-27.02,0-13.26,3.53-28.02,10.6-44.28,7.07-16.26,16.54-31.02,28.43-44.28,11.88-13.26,24.39-23.02,37.53-29.27,10.13-4.75,23.14-7.13,39.03-7.13,4,0,8.07.25,12.2.75l4.5-7.32Zm-23.27,28.71c-6.76-1.37-12.45-2.06-17.08-2.06-11.26,0-21.08,3.1-29.46,9.29-8.38,6.19-16.17,17.33-23.36,33.4-7.2,16.08-10.79,32.12-10.79,48.13,0,8.51,1.44,14.64,4.32,18.39,2.88,3.75,6.63,5.63,11.26,5.63,8.63,0,17.89-4.66,27.77-13.98,9.88-9.32,17.14-22.73,21.77-40.25l15.57-58.54Z"
  />
</svg>
